# xmcd
#
# Track frame offsets:
#	150
#	21427
#	36321
#	55255
#	76211
#	95651
#	110332
#	144062
#	162616
#	178666
#	204301
#
# Disc length: 2981 seconds
#
# Revision: 1
# Processed by: cddbd v1.5.2PL0 Copyright (c) Steve Scherf et al.
# Submitted via: audiograbber 1.83.01
#
DISCID=900ba30b
DTITLE=Kathy Mattea - Live In Concert, BBC Radio 2
DYEAR=1997
DGENRE=Country
TTITLE0=Patiently Waiting
TTITLE1=18 Wheels And A Dozen Roses
TTITLE2=Come From The Heart
TTITLE3=Asking Us To Dance
TTITLE4=Sending Me Angels
TTITLE5=I'm On Your Side
TTITLE6=Walking Away A Winner - Clown In Your Rodeo
TTITLE7=Love At Theme
TTITLE8=Untold Stories
TTITLE9=Further And Further Away
TTITLE10=Ready For The Storm
EXTD=
EXTT0=
EXTT1=
EXTT2=
EXTT3=
EXTT4=
EXTT5=
EXTT6=
EXTT7=
EXTT8=
EXTT9=
EXTT10=
PLAYORDER=
